<svg width="179" height="49" viewBox="0 0 179 49" fill="none" xmlns="http://www.w3.org/2000/svg">
<path d="M6.8 4.544L9.488 2.656H19.824C23.1093 2.656 25.776 3.104 27.824 4C29.872 4.896 31.3653 6.13333 32.304 7.712C33.2427 9.26933 33.712 11.0507 33.712 13.056C33.712 16.1067 32.6133 18.56 30.416 20.416C28.24 22.2507 25.4347 23.3387 22 23.68L22.896 23.2C27.3547 23.5413 30.8427 24.8213 33.36 27.04C35.8773 29.2587 37.136 31.9467 37.136 35.104C37.136 37.4933 36.5387 39.6693 35.344 41.632C34.1707 43.5733 32.2507 45.12 29.584 46.272C26.9387 47.424 23.3973 48 18.96 48H9.52L7.568 46.144H18.416C20.912 46.144 23.056 45.76 24.848 44.992C26.6613 44.224 28.048 43.04 29.008 41.44C29.9893 39.8187 30.48 37.7493 30.48 35.232C30.48 33.184 30.0747 31.3813 29.264 29.824C28.4747 28.2453 27.248 27.0187 25.584 26.144C23.9413 25.2693 21.808 24.832 19.184 24.832H7.536L6.8 22.944H18.736C21.424 22.944 23.5573 22.176 25.136 20.64C26.736 19.0827 27.536 16.7253 27.536 13.568C27.536 11.7547 27.1413 10.176 26.352 8.832C25.584 7.46666 24.3787 6.41066 22.736 5.664C21.1147 4.91733 19.0027 4.544 16.4 4.544H6.8ZM0.272 48V47.04L5.872 45.632V4.992L0.272 3.648V2.656H12.272V48H0.272ZM60.2375 27.264L60.5895 28.736C57.6668 29.632 55.2882 30.4853 53.4535 31.296C51.6402 32.1067 50.2428 32.928 49.2615 33.76C48.3015 34.5707 47.6402 35.424 47.2775 36.32C46.9148 37.216 46.7335 38.208 46.7335 39.296C46.7335 41.088 47.2455 42.4427 48.2695 43.36C49.3148 44.256 50.5842 44.704 52.0775 44.704C53.2722 44.704 54.3175 44.4587 55.2135 43.968C56.1308 43.4773 56.8455 42.7733 57.3575 41.856C57.8908 40.9387 58.1575 39.84 58.1575 38.56V24.352C58.1575 22.24 57.6348 20.64 56.5895 19.552C55.5655 18.4427 53.9868 17.888 51.8535 17.888C50.8508 17.888 49.8375 17.9733 48.8135 18.144C47.8108 18.3147 46.9895 18.56 46.3495 18.88L48.0455 17.568C47.9815 18.3147 47.8748 19.0933 47.7255 19.904C47.5975 20.7147 47.4375 21.4507 47.2455 22.112C47.0535 22.752 46.8188 23.232 46.5415 23.552C46.2642 23.9147 45.8375 24.192 45.2615 24.384C44.7068 24.5547 44.1415 24.64 43.5655 24.64C42.8188 24.64 42.2215 24.4907 41.7735 24.192C41.3255 23.872 41.1015 23.4027 41.1015 22.784C41.1015 21.9093 41.5068 21.0453 42.3175 20.192C43.1495 19.3173 44.2162 18.528 45.5175 17.824C46.8402 17.0987 48.2695 16.5227 49.8055 16.096C51.3415 15.6693 52.8135 15.456 54.2215 15.456C56.5468 15.456 58.4135 15.7973 59.8215 16.48C61.2295 17.1627 62.2535 18.1333 62.8935 19.392C63.5335 20.6293 63.8535 22.0907 63.8535 23.776V42.112C63.8535 42.7947 63.9602 43.3493 64.1735 43.776C64.4082 44.2027 64.7175 44.5227 65.1015 44.736C65.5068 44.928 65.9762 45.024 66.5095 45.024C67.1922 45.024 67.8748 44.9173 68.5575 44.704C69.2615 44.4693 69.9762 44.096 70.7015 43.584V44.544C69.2295 46.272 67.9068 47.392 66.7335 47.904C65.5602 48.3947 64.3655 48.64 63.1495 48.64C61.9122 48.64 60.9308 48.3627 60.2055 47.808C59.4802 47.2533 58.9575 46.464 58.6375 45.44C58.3175 44.3947 58.1362 43.1467 58.0935 41.696L58.1895 41.664C57.8482 43.008 57.2722 44.2027 56.4615 45.248C55.6508 46.2933 54.6802 47.1253 53.5495 47.744C52.4188 48.3413 51.1708 48.64 49.8055 48.64C47.2455 48.64 45.1015 47.9573 43.3735 46.592C41.6668 45.2053 40.8135 43.2 40.8135 40.576C40.8135 39.2107 41.0482 37.9947 41.5175 36.928C42.0082 35.8613 42.9255 34.848 44.2695 33.888C45.6348 32.928 47.5975 31.9253 50.1575 30.88C52.7175 29.8133 56.0775 28.608 60.2375 27.264ZM83.154 15.392C84.562 15.392 85.8313 15.5413 86.962 15.84C88.114 16.1387 89.3087 16.5973 90.546 17.216L91.474 25.824H90.418L86.45 17.216L88.882 20.064C87.794 18.9333 86.7807 18.1333 85.842 17.664C84.9033 17.1733 83.7833 16.928 82.482 16.928C80.6687 16.928 79.25 17.344 78.226 18.176C77.2233 19.008 76.722 20.2133 76.722 21.792C76.722 22.688 76.9033 23.5093 77.266 24.256C77.65 24.9813 78.3647 25.696 79.41 26.4C80.4767 27.0827 82.0447 27.84 84.114 28.672C85.65 29.2693 86.9407 29.92 87.986 30.624C89.0527 31.328 89.8953 32.0853 90.514 32.896C91.154 33.7067 91.6127 34.592 91.89 35.552C92.1673 36.512 92.306 37.5573 92.306 38.688C92.306 40.672 91.762 42.4107 90.674 43.904C89.6073 45.3973 88.178 46.56 86.386 47.392C84.594 48.224 82.6313 48.64 80.498 48.64C78.9193 48.64 77.5007 48.4907 76.242 48.192C75.0047 47.8933 73.7993 47.4453 72.626 46.848L70.866 37.12H72.05L77.202 47.136L75.282 45.344C75.858 45.728 76.4447 46.048 77.042 46.304C77.6393 46.56 78.2473 46.752 78.866 46.88C79.506 47.008 80.1353 47.072 80.754 47.072C82.5887 47.072 84.21 46.5707 85.618 45.568C87.026 44.544 87.73 42.9973 87.73 40.928C87.73 40.1173 87.5913 39.3813 87.314 38.72C87.0367 38.0373 86.5887 37.408 85.97 36.832C85.3727 36.2347 84.5727 35.6693 83.57 35.136C82.5887 34.5813 81.3727 34.0373 79.922 33.504C78.002 32.736 76.4767 31.8933 75.346 30.976C74.2367 30.0587 73.4367 29.0347 72.946 27.904C72.4553 26.752 72.21 25.4613 72.21 24.032C72.21 22.176 72.7113 20.608 73.714 19.328C74.738 18.048 76.0713 17.0773 77.714 16.416C79.378 15.7333 81.1913 15.392 83.154 15.392ZM108.702 29.6L109.918 28.224L126.43 46.08L130.11 47.104V48H115.038V47.104L119.326 46.144L105.63 31.36H103.838V29.728H106.11L120.158 18.176L115.518 17.152V16.032H127.742V17.152L123.102 18.24L108.702 29.6ZM104.926 46.048L109.566 47.104V48H94.5895V47.104L99.2295 46.048V6.368C98.9522 6.21866 98.5575 6.02666 98.0455 5.792C97.5548 5.536 96.9682 5.25866 96.2855 4.96C95.6242 4.64 94.8775 4.288 94.0455 3.904V3.328L104.766 0.831997H104.99L104.926 6.048V46.048ZM143.537 15.392C145.755 15.392 147.686 15.8613 149.329 16.8C150.971 17.7173 152.273 19.0827 153.233 20.896C154.214 22.688 154.801 24.896 154.993 27.52H134.033L134.065 25.632L151.537 25.504L149.105 26.784C148.891 24.608 148.518 22.8053 147.985 21.376C147.451 19.9467 146.747 18.88 145.873 18.176C144.998 17.472 143.921 17.12 142.641 17.12C140.955 17.12 139.494 17.6107 138.257 18.592C137.041 19.552 136.102 20.9707 135.441 22.848C134.801 24.704 134.481 26.9547 134.481 29.6C134.481 32.992 134.939 35.7653 135.857 37.92C136.795 40.0747 138.139 41.6533 139.889 42.656C141.638 43.6587 143.761 44.16 146.257 44.16C147.387 44.16 148.486 44.0107 149.553 43.712C150.641 43.4133 151.665 42.9653 152.625 42.368C153.585 41.7493 154.417 40.9813 155.121 40.064L155.665 40.512C154.385 42.496 153.094 44.0853 151.793 45.28C150.491 46.4747 149.126 47.3387 147.697 47.872C146.267 48.384 144.71 48.64 143.025 48.64C140.294 48.64 137.83 48.0213 135.633 46.784C133.457 45.5467 131.739 43.7333 130.481 41.344C129.222 38.9333 128.593 36.0107 128.593 32.576C128.593 29.4613 129.179 26.6027 130.353 24C131.526 21.3973 133.233 19.3173 135.473 17.76C137.713 16.1813 140.401 15.392 143.537 15.392ZM166.983 39.712C166.983 41.2693 167.474 42.4427 168.455 43.232C169.436 44.0213 170.727 44.416 172.327 44.416C173.244 44.416 174.204 44.3307 175.207 44.16C176.21 43.9893 177.372 43.712 178.695 43.328V44.32C176.818 45.4507 175.282 46.3253 174.087 46.944C172.914 47.5627 171.9 48 171.047 48.256C170.194 48.512 169.298 48.64 168.359 48.64C167.122 48.64 165.959 48.3733 164.871 47.84C163.804 47.2853 162.94 46.4107 162.279 45.216C161.618 44.0213 161.287 42.464 161.287 40.544V20.192L157.319 17.696V17.216C157.575 17.0453 157.916 16.8213 158.343 16.544C158.77 16.2667 159.26 15.936 159.815 15.552C160.391 15.168 161.031 14.7413 161.735 14.272C162.46 13.8027 163.228 13.3013 164.039 12.768C164.85 12.2133 165.703 11.648 166.599 11.072H166.983V17.184V39.712ZM165.031 19.424V16.032H177.767L177.255 19.424H165.031Z" fill="black"/>
</svg>
