<svg width="223" height="49" viewBox="0 0 223 49" fill="none" xmlns="http://www.w3.org/2000/svg">
<path d="M30.096 15.168C30.096 12.928 29.616 11.04 28.656 9.504C27.696 7.94667 26.1067 6.76267 23.888 5.952C21.6693 5.14133 18.672 4.736 14.896 4.736H7.952L8.016 2.656H20.144C24.0907 2.656 27.2587 3.2 29.648 4.288C32.0587 5.35466 33.8187 6.80533 34.928 8.64C36.0587 10.4533 36.624 12.4907 36.624 14.752C36.624 17.0987 36.048 19.2533 34.896 21.216C33.744 23.1787 31.9627 24.7467 29.552 25.92C27.1413 27.072 24.0053 27.648 20.144 27.648H8.016L7.952 25.568H18.96C21.072 25.568 22.9707 25.184 24.656 24.416C26.3413 23.6267 27.664 22.464 28.624 20.928C29.6053 19.3707 30.096 17.4507 30.096 15.168ZM12.272 2.656V45.632L17.872 47.04V48H0.272V47.04L5.872 45.632V4.992L0.272 3.648V2.656H12.272ZM58.573 15.488C59.533 15.488 60.2797 15.7547 60.813 16.288C61.3677 16.8213 61.645 17.5467 61.645 18.464C61.645 19.5733 61.3037 20.4693 60.621 21.152C59.9383 21.8347 59.0637 22.176 57.997 22.176C57.5277 22.176 57.0477 22.112 56.557 21.984C56.0877 21.856 55.5863 21.728 55.053 21.6C54.5197 21.472 53.933 21.408 53.293 21.408C52.6743 21.408 52.0877 21.5147 51.533 21.728C50.9783 21.9413 50.4237 22.2293 49.869 22.592C49.3357 22.9547 48.7917 23.392 48.237 23.904L48.141 22.528C49.6983 20.9493 51.021 19.6907 52.109 18.752C53.197 17.8133 54.125 17.1093 54.893 16.64C55.661 16.1707 56.333 15.8613 56.909 15.712C57.485 15.5627 58.0397 15.488 58.573 15.488ZM48.653 21.28V46.048L53.837 47.104V48H38.349V47.104L42.957 46.048V21.472C42.6797 21.28 42.3277 21.056 41.901 20.8C41.4957 20.544 40.9943 20.2453 40.397 19.904C39.821 19.5413 39.1383 19.136 38.349 18.688V18.08L48.397 15.104H48.621L48.653 21.28ZM77.4515 47.072C79.4568 47.072 81.1528 46.5173 82.5395 45.408C83.9262 44.2987 84.9715 42.6347 85.6755 40.416C86.4008 38.1973 86.7635 35.4453 86.7635 32.16C86.7635 28.832 86.4115 26.048 85.7075 23.808C85.0035 21.5467 83.9688 19.84 82.6035 18.688C81.2382 17.536 79.5635 16.96 77.5795 16.96C75.5955 16.96 73.9102 17.5253 72.5235 18.656C71.1368 19.7653 70.0808 21.4293 69.3555 23.648C68.6515 25.8453 68.2995 28.5867 68.2995 31.872C68.2995 35.1787 68.6515 37.9627 69.3555 40.224C70.0595 42.4853 71.0942 44.192 72.4595 45.344C73.8248 46.496 75.4888 47.072 77.4515 47.072ZM77.3875 48.64C74.5075 48.64 71.9048 47.936 69.5795 46.528C67.2542 45.12 65.3982 43.168 64.0115 40.672C62.6462 38.1547 61.9635 35.2747 61.9635 32.032C61.9635 28.7893 62.6675 25.92 64.0755 23.424C65.4835 20.9067 67.3715 18.944 69.7395 17.536C72.1075 16.1067 74.7528 15.392 77.6755 15.392C80.5982 15.392 83.2222 16.1067 85.5475 17.536C87.8728 18.944 89.7075 20.896 91.0515 23.392C92.4168 25.8667 93.0995 28.736 93.0995 32C93.0995 35.264 92.3848 38.1547 90.9555 40.672C89.5262 43.168 87.6168 45.12 85.2275 46.528C82.8595 47.936 80.2462 48.64 77.3875 48.64ZM120.336 24.16C120.336 22.112 119.589 20.4267 118.096 19.104C116.603 17.7813 114.715 17.12 112.432 17.12C110.363 17.12 108.603 17.664 107.152 18.752C105.701 19.84 104.592 21.4293 103.824 23.52C103.077 25.6107 102.704 28.1707 102.704 31.2C102.704 34.144 103.077 36.5973 103.824 38.56C104.571 40.5013 105.68 41.9627 107.152 42.944C108.624 43.904 110.459 44.384 112.656 44.384C114.448 44.384 116.112 44.0853 117.648 43.488C119.184 42.8907 120.667 41.856 122.096 40.384L122.512 41.28C121.125 42.7093 119.867 43.904 118.736 44.864C117.605 45.8027 116.539 46.5493 115.536 47.104C114.555 47.6587 113.605 48.0533 112.688 48.288C111.792 48.5227 110.917 48.64 110.064 48.64C107.291 48.64 104.891 48.0107 102.864 46.752C100.859 45.4933 99.3013 43.7333 98.192 41.472C97.104 39.2107 96.56 36.5867 96.56 33.6C96.56 30.72 96.976 28.16 97.808 25.92C98.6613 23.6587 99.856 21.7493 101.392 20.192C102.928 18.6347 104.741 17.4507 106.832 16.64C108.923 15.808 111.205 15.392 113.68 15.392C114.896 15.392 116.123 15.488 117.36 15.68C118.597 15.8507 119.813 16.128 121.008 16.512C122.203 16.896 123.333 17.3867 124.4 17.984L120.336 19.008V6.24C120.08 6.112 119.664 5.90933 119.088 5.632C118.533 5.35467 117.915 5.056 117.232 4.736C116.549 4.416 115.899 4.128 115.28 3.872V3.296L126.288 0.831997H126.48L126.032 5.824V44.576C126.224 44.6827 126.523 44.832 126.928 45.024C127.355 45.1947 127.813 45.376 128.304 45.568C128.795 45.76 129.275 45.952 129.744 46.144C130.235 46.336 130.651 46.496 130.992 46.624V47.36L120.624 48.8H120.4L120.336 44.256V24.16ZM141.454 38.08C141.454 39.488 141.688 40.6613 142.158 41.6C142.648 42.5173 143.395 43.2107 144.398 43.68C145.4 44.128 146.702 44.352 148.302 44.352C149.966 44.352 151.534 44.096 153.006 43.584C154.478 43.072 155.672 42.4853 156.59 41.824L157.23 42.592C155.63 43.8293 154.243 44.8427 153.07 45.632C151.896 46.4213 150.83 47.04 149.87 47.488C148.931 47.9147 148.024 48.2133 147.15 48.384C146.275 48.5547 145.358 48.64 144.398 48.64C141.368 48.64 139.171 47.808 137.806 46.144C136.44 44.4587 135.758 41.824 135.758 38.24V18.72L130.222 17.568V16.32L141.774 15.744L141.454 18.72V38.08ZM155.342 48.8L155.246 42.752V18.72L149.742 17.568V16.32L161.294 15.744L160.974 18.72V44.576C161.166 44.6827 161.464 44.832 161.87 45.024C162.275 45.1947 162.723 45.376 163.214 45.568C163.726 45.76 164.216 45.952 164.686 46.144C165.155 46.336 165.56 46.496 165.902 46.624V47.36L155.566 48.8H155.342ZM184.262 15.392C186.267 15.392 187.899 15.6053 189.158 16.032C190.438 16.4587 191.377 17.0133 191.974 17.696C192.571 18.3787 192.87 19.1147 192.87 19.904C192.87 20.5653 192.731 21.1413 192.454 21.632C192.198 22.1013 191.835 22.464 191.366 22.72C190.897 22.976 190.321 23.104 189.638 23.104C189.403 23.104 189.094 22.912 188.71 22.528C188.347 22.1227 187.91 21.632 187.398 21.056C186.886 20.48 186.31 19.904 185.67 19.328C185.051 18.7307 184.39 18.24 183.686 17.856C182.982 17.4507 182.235 17.248 181.446 17.248C179.953 17.248 178.609 17.6853 177.414 18.56C176.241 19.4347 175.313 20.768 174.63 22.56C173.969 24.352 173.638 26.656 173.638 29.472C173.638 32.8853 174.065 35.68 174.918 37.856C175.771 40.032 177.019 41.632 178.662 42.656C180.305 43.6587 182.331 44.16 184.742 44.16C186.363 44.16 187.931 43.8293 189.446 43.168C190.961 42.4853 192.241 41.4507 193.286 40.064L193.798 40.512C192.582 42.496 191.345 44.0853 190.086 45.28C188.827 46.4747 187.505 47.3387 186.118 47.872C184.753 48.384 183.259 48.64 181.638 48.64C179.014 48.64 176.646 48.0213 174.534 46.784C172.443 45.5467 170.79 43.744 169.574 41.376C168.358 38.9867 167.75 36.0747 167.75 32.64C167.75 30.144 168.155 27.8507 168.966 25.76C169.777 23.6693 170.918 21.856 172.39 20.32C173.862 18.7627 175.601 17.5573 177.606 16.704C179.633 15.8293 181.851 15.392 184.262 15.392ZM210.789 15.392C213.008 15.392 214.938 15.8613 216.581 16.8C218.224 17.7173 219.525 19.0827 220.485 20.896C221.466 22.688 222.053 24.896 222.245 27.52H201.285L201.317 25.632L218.789 25.504L216.357 26.784C216.144 24.608 215.77 22.8053 215.237 21.376C214.704 19.9467 214 18.88 213.125 18.176C212.25 17.472 211.173 17.12 209.893 17.12C208.208 17.12 206.746 17.6107 205.509 18.592C204.293 19.552 203.354 20.9707 202.693 22.848C202.053 24.704 201.733 26.9547 201.733 29.6C201.733 32.992 202.192 35.7653 203.109 37.92C204.048 40.0747 205.392 41.6533 207.141 42.656C208.89 43.6587 211.013 44.16 213.509 44.16C214.64 44.16 215.738 44.0107 216.805 43.712C217.893 43.4133 218.917 42.9653 219.877 42.368C220.837 41.7493 221.669 40.9813 222.373 40.064L222.917 40.512C221.637 42.496 220.346 44.0853 219.045 45.28C217.744 46.4747 216.378 47.3387 214.949 47.872C213.52 48.384 211.962 48.64 210.277 48.64C207.546 48.64 205.082 48.0213 202.885 46.784C200.709 45.5467 198.992 43.7333 197.733 41.344C196.474 38.9333 195.845 36.0107 195.845 32.576C195.845 29.4613 196.432 26.6027 197.605 24C198.778 21.3973 200.485 19.3173 202.725 17.76C204.965 16.1813 207.653 15.392 210.789 15.392Z" fill="black"/>
</svg>
